<?xml version="1.0" encoding="UTF-8"?>
<svg id="Layer_1" xmlns="http://www.w3.org/2000/svg" viewBox="0 0 434.5 434.5">
  <defs>
    <style>
      .cls-1 {
        fill: #7b5b8e;
      }

      .cls-2 {
        fill: #fff;
        stroke: #7b5b8e;
        stroke-miterlimit: 10;
        stroke-width: 8px;
      }
    </style>
  </defs>
  <rect class="cls-1" width="434.5" height="434.5" rx="23.62" ry="23.62"/>
  <g>
    <path class="cls-2" d="M220.89,216.91l-50.63-48.34-11.8-37.3s4.19-26.64,15.61-39.21c11.42-12.56,25.12-20.55,31.97-30.07s7.23-16.37,7.23-16.37c0,0,8.37,10.28,15.23,19.41,6.85,9.14,7.23,16.75,20.17,21.32s30.07,24.74,33.5,42.63-32.73,87.93-32.73,87.93h-28.55Z"/>
    <path class="cls-2" d="M209.52,254.97s-64-21.32-77.32-18.65-49.1,19.41-58.24,34.64-19.41,52.53-19.41,60.52,8.37,34.26,5.33,40.73c-3.05,6.47-5.33,9.52-5.33,9.52,0,0-.76-6.85,34.26-7.99,35.02-1.14,57.86,1.9,75.75-19.41,17.89-21.32,33.12-41.11,33.5-60.52.38-19.41,11.47-38.83,11.47-38.83Z"/>
    <path class="cls-2" d="M237.64,257.25s2.66,35.78,10.28,49.86c7.61,14.08,23.22,43.39,64.71,54.43,41.49,11.04,37.3,10.66,50.63,8.37,13.32-2.28,21.32,1.3,21.32,1.3,0,0-7.61-4.72-2.66-33.27,4.95-28.55,1.9-60.9-9.52-75.37-11.42-14.46-40.35-32.35-61.28-31.59s-56.72,27.03-56.72,27.03l-16.75-.76Z"/>
    <path class="cls-2" d="M233.45,245.84l9.14-32.35s-3.81-15.99,0-34.64,8.37-46.44,30.07-57.86,51.39-19.79,70.8-17.51c19.41,2.28,42.63,15.61,47.2,14.84,4.57-.76-14.84,29.69-16.37,41.11-1.52,11.42-38.44,53.67-46.44,55.57s-28.22,3.28-39.59,15.96c-11.36,12.68-35.4,35.42-35.4,35.42l-19.41-20.55Z"/>
    <path class="cls-2" d="M216.71,232.89s-15.61-53.67-23.98-64.33c-8.37-10.66-22.08-41.11-43.77-47.2s-51.39-3.81-68.9,4.57c-17.51,8.37-30.83,18.65-36.16,18.27-5.33-.38,19.41,14.08,22.08,27.79s28.55,46.44,39.97,50.24c11.42,3.81,62.42,20.55,69.66,26.26,7.23,5.71,41.11-15.61,41.11-15.61Z"/>
    <path class="cls-2" d="M203.54,263.84s-10.18-19.59-10.8-42.11c-.62-22.53-7.13-31.99,1.86-48.32,8.99-16.32,6.2-15.02,16.12-16.65s12.71,6.2,18.6,11.1c5.89,4.9,8.32,13.49,16.35,37.43s2.56,27.21,2.56,27.21l-22.63,30.04-22.06,1.31Z"/>
    <path class="cls-2" d="M215.18,327.29s-11.04,1.52-14.46-7.23-6.47-17.51-14.46-18.27c-7.99-.76-17.89-11.42-19.41-24.74s3.05-23.98,6.09-37.3,11.8-39.21,11.8-51.01,14.46-2.28,9.9,7.61-3.05,31.59,4.19,37.68,30.45,6.47,37.3-2.28c6.85-8.75,13.32-7.99,6.47-20.55-6.85-12.56-19.03-31.21-8.37-24.74s20.55,18.27,24.36,34.64c3.81,16.37,9.14,11.8,4.95,39.97s-1.14,27.79-10.66,36.16c-9.52,8.37-23.6,4.57-20.94,14.84s2.28,13.32-16.75,15.23Z"/>
  </g>
</svg>